<?xml version="1.0" encoding="utf-8"?>
<!-- Generator: Adobe Illustrator 24.0.0, SVG Export Plug-In . SVG Version: 6.00 Build 0)  -->
<svg version="1.1" id="logo-black" xmlns="http://www.w3.org/2000/svg" xmlns:xlink="http://www.w3.org/1999/xlink" x="0px" y="0px"
	 viewBox="0 0 24 144.1" style="enable-background:new 0 0 24 144.1;" xml:space="preserve">
<style type="text/css">
	.st0{fill:#221F1F;}
</style>
<path id="logo" class="st0" d="M2.4,137.7c-0.2-0.2-0.3-0.5-0.6-0.9c-0.2-0.4-0.5-1.2-0.9-2.4s-0.6-2.5-0.6-3.7c0-0.2,0-0.3,0-0.5
	c0-1.2,0.1-2.3,0.4-3.5c0.1-0.7,0.3-1.3,0.5-2s0.4-1.3,0.6-1.9s0.3-1,0.4-1.1l6.1-0.2c-2.3,2.7-4,5-5.1,7s-1.8,3.4-1.8,4.1
	c-0.1,0.8-0.1,1.2-0.1,1.4c0,1.1,0.4,2,1.2,2.8s2,1.3,3.6,1.7s3.6,0.5,6.1,0.5c3.3,0,6-0.7,8.1-2.1c2.1-1.4,3.1-3.5,3.1-6.1
	c0-2.1-1.1-4-3.4-5.5s-5.1-2.3-8.3-2.3c2,4.7,4.7,8.7,8.2,12l-8.3-3.6v-12.6H14c3.1,0.2,5.5,1.4,7.3,3.6c1.8,2.2,2.7,5,2.8,8.3
	c0,2.4-0.6,4.7-1.6,6.8c-1.1,2.1-2.5,3.7-4.3,4.9c-1.8,1.2-3.8,1.8-5.9,1.8C8.2,144.1,4.9,141.9,2.4,137.7z M12.8,115.3H0.7v-8.1
	c1.1,1.5,2.5,2.8,4.1,3.9s3.2,1.9,4.8,2.4s3.2,0.8,4.7,0.8c0.2,0,0.7,0,1.6,0s2-0.4,3.3-1s2.4-1.6,3.1-3c0.8-1.4,1.2-3,1.2-5
	c0-2.3-1-4.3-3.1-5.7c-2-1.5-4.6-2.3-7.7-2.3h-12v-4.8h12.1c3.1,0,5.8,1.2,7.9,3.6s3.2,5.5,3.2,9.2v0.1c0,3.2-1,5.7-3.1,7.4
	C18.7,114.5,16,115.3,12.8,115.3z M6.6,88.4c-1.7,0-3-0.7-4.1-2s-1.7-2.6-1.9-3.9s-0.3-2.4-0.3-3.2c0-1,0.1-2.3,0.4-3.7
	c0.3-1.5,0.9-2.8,1.8-4h7.4c-3.9,1.2-6.6,3.3-8,6.2c-0.6,1.3-1,2.5-1,3.7c0,0.7,0.1,1.4,0.4,2.1c0.5,1.4,1.2,2.2,2.3,2.5
	c0.2,0,0.4,0.1,0.6,0.1c1.2,0,2.5-0.9,3.8-2.8c1.1-1.6,2-3.8,2.9-6.5c0.1-0.4,0.3-0.9,0.5-1.5c0.2-0.5,0.5-1.2,0.9-1.9
	c0.4-0.7,0.9-1.4,1.4-2.1c0.5-0.6,1.1-1.2,1.8-1.7s1.4-0.8,1.9-0.9s1-0.2,1.3-0.2c0.6,0,1.3,0.1,2.2,0.4c0.9,0.3,1.9,0.8,3,1.7
	c-1.4,0.1-2.7,0.4-3.8,1.1c-1.1,0.7-1.9,1.6-2.6,2.6c-0.6,1-1.2,2.2-1.7,3.5c-0.5,1.3-1,2.5-1.5,3.8c-0.5,1.2-1.1,2.4-1.7,3.4
	c-0.6,1-1.4,1.9-2.4,2.5C9.1,88.1,7.9,88.4,6.6,88.4z M17.7,86.3l5.9-5.7v5.7H17.7z M0,66.2c0-0.1,0.1-0.3,0.2-0.6
	c0.1-0.3,0.2-0.6,0.3-0.8c0.1-0.3,0.1-0.5,0.1-0.7V46.7c0-0.2,0-0.5-0.1-0.7s-0.2-0.5-0.3-0.8S0,44.7,0,44.6l10.3-1
	c-2.4,1.5-4.5,3.1-6.4,4.7c-1.9,1.7-2.8,3-2.8,3.9v1h22.5v4.2H1.1v1c0,0.7,0.6,1.7,1.8,2.9s2.4,2.3,3.7,3.2c1.3,0.9,2.5,1.8,3.8,2.5
	L0,66.2z M5.4,32.1l12.7,7c0.7,0.4,1.3,0.1,2-0.9c0.6-1,1.3-2.4,2-4.2s1.2-3,1.5-3.6v12.4L5.1,32.3c-2.3,1.2-3.8,2.2-4.4,2.8v-5.5
	l22.9-12.4v5.3L5.4,32.1z M14.4,2.5c1.6,1.6,2.4,3.6,2.4,5.9c0,2.4-0.8,4.4-2.4,6s-3.6,2.4-6,2.4c-2.5,0-4.5-0.9-6.1-2.6
	C0.8,12.5,0,10.6,0,8.4c0-2.3,0.8-4.3,2.5-5.9C4.1,0.8,6.1,0,8.4,0C10.8,0,12.8,0.8,14.4,2.5z M3.5,13.3c1.4,1.3,3,2,4.9,2
	s3.6-0.7,5-2c1.4-1.4,2-3,2-4.9s-0.7-3.5-2.1-4.9s-3-2-4.9-2s-3.5,0.7-4.9,2c-1.4,1.4-2.1,3-2.1,4.9C1.4,10.3,2.1,12,3.5,13.3z
	 M13.1,12.1H3.8c0-0.6,0-1.4,0-2.6s0-1.8,0-1.9c0-0.8,0.2-1.4,0.5-1.9c0.5-0.8,1.2-1.2,2.2-1.2c0.8,0,1.3,0.2,1.7,0.7
	c0.3,0.4,0.6,1,0.6,1.6c0.1-0.6,0.3-1,0.5-1.3c0.4-0.5,1.1-0.8,2.1-0.8h0.8c0.1,0,0.2,0,0.3,0s0.2,0,0.3-0.1l0.3-0.1v2.3
	c-0.3,0.1-0.7,0.1-1.3,0.2c-0.6,0-0.9,0.1-1.1,0.2c-0.3,0.1-0.6,0.3-0.7,0.7c-0.1,0-0.2,0.3-0.2,0.7v0.5v0.5h3.3V12.1z M5.6,7.6
	C5.5,8,5.4,8.4,5.4,9.1v0.6h2.7v-1c0-0.6-0.1-1-0.3-1.3C7.5,7,7.2,6.9,6.7,6.9S5.8,7.1,5.6,7.6z"/>
</svg>
